<svg width="24" height="24" viewBox="0 0 24 24" fill="black" xmlns="http://www.w3.org/2000/svg">
	<path d="M3.42732 23.5656L3.49785 23.6437L3.57222 23.5693L4.57071 22.5707L4.63794 22.5035L4.57418 22.4329L4.00201 21.8L4.00211 21.7999L3.99854 21.7963C3.55103 21.3488 3.51819 20.6561 3.87654 20.1718C4.68504 20.5189 5.66065 20.3649 6.32224 19.7033L6.85355 19.172C7.671 19.5453 8.64799 19.4153 9.33929 18.8054L9.27313 18.7304L9.33929 18.8054L16.5491 12.4438C17.9293 12.3742 19.2509 11.7672 20.3013 10.7168C22.5426 8.47546 22.5426 4.82877 20.3013 2.58736C18.06 0.346009 14.4132 0.346009 12.1719 2.58736L12.2426 2.65807L12.1719 2.58737C11.1214 3.63787 10.514 4.95955 10.4446 6.33989L4.08255 13.5502C3.4651 14.25 3.34834 15.2297 3.71627 16.0355L3.18529 16.5664L3.18529 16.5664C2.51942 17.2324 2.36687 18.2191 2.72586 19.0326C1.74453 20.1546 1.78512 21.8609 2.85688 22.9345L3.42732 23.5656ZM4.32525 17.7063L4.75381 17.2778L5.61089 18.1349L5.18238 18.5634C4.94612 18.7996 4.56151 18.7996 4.32525 18.5634C4.08899 18.3272 4.08899 17.9426 4.32525 17.7063ZM8.27268 17.5966L8.27267 17.5966C7.9987 17.8384 7.58126 17.8254 7.3228 17.567L5.32097 15.5651C5.06299 15.3071 5.04994 14.8904 5.29136 14.6167L11.2808 7.82875L15.0599 11.6078L8.27268 17.5966ZM12.7913 4.34674L18.542 10.0974C17.9347 10.5239 17.2557 10.7753 16.5601 10.8283L12.0605 6.32859C12.1134 5.63307 12.3649 4.95399 12.7913 4.34674ZM19.1614 3.72732C20.5789 5.14481 20.7496 7.3437 19.6748 8.95042L13.9383 3.2139C15.545 2.13912 17.7438 2.30984 19.1614 3.72732Z" fill="current" stroke="current" strokeWidth="0.5" />
</svg>
