<svg xmlns="http://www.w3.org/2000/svg" xmlns:xlink="http://www.w3.org/1999/xlink" viewBox="0 0 24 24" width="24px" height="24px">
	<path style="fill-rule:nonzero;fill-opacity:1;stroke-width:7;stroke-linecap:butt;stroke-linejoin:round;stroke:rgb(80.000001%,80.000001%,80.000001%);stroke-opacity:1;stroke-miterlimit:10;" d="M 216.601529 112.999997 L 188.350013 112.999997 L 188.350013 197.754545 L 122.404528 197.754545 L 122.404528 141.251513 L 103.595465 141.251513 L 103.595465 197.754545 L 37.64998 197.754545 L 37.64998 112.999997 L 9.398464 112.999997 L 112.999997 19.788954 Z M 56.496965 95.973244 L 56.496965 178.90756 L 84.748481 178.90756 L 84.748481 122.404528 L 141.251513 122.404528 L 141.251513 178.90756 L 169.503029 178.90756 L 169.503029 95.973244 L 112.999997 45.120515 Z M 56.496965 95.973244 " transform="matrix(0.103009,0,0,0.103009,0.36,0.36)" />
	<path style=" stroke:none;fill-opacity:1;" d="M 12 2.398438 L 1.328125 12 L 4.238281 12 L 4.238281 20.730469 L 11.03125 20.730469 L 11.03125 14.910156 L 12.96875 14.910156 L 12.96875 20.730469 L 19.761719 20.730469 L 19.761719 12 L 22.671875 12 Z M 12 5.007812 L 17.820312 10.246094 L 17.820312 18.789062 L 14.910156 18.789062 L 14.910156 12.96875 L 9.089844 12.96875 L 9.089844 18.789062 L 6.179688 18.789062 L 6.179688 10.246094 Z M 12 5.007812 " />
</svg>
